<svg id="Layer_1" data-name="Layer 1" xmlns="http://www.w3.org/2000/svg" viewBox="0 0 360 360"><defs><style>.cls-1{fill:#262a38;}.cls-2,.cls-3{fill:#fff;}.cls-3{font-size:30.6px;font-family:SigmarOne-Regular, Sigmar One;}</style></defs><title>equinaphics</title><rect class="cls-1" width="360" height="360"/><path class="cls-2" d="M124.69,126l3.41,20.74.26,1.57-2,1h0a27.37,27.37,0,0,1-6.13,1.89,30.88,30.88,0,0,1-3.19.4c-1.07.09-2.15,0-3.23,0h0l2-.54-12,5.81h0l.37-.41a16.38,16.38,0,0,1-10.41,9.47A18,18,0,0,1,79.44,164,18.3,18.3,0,0,1,71,152a18.56,18.56,0,0,1,0-7.57,18,18,0,0,1,1.22-3.68,27.61,27.61,0,0,1,1.89-3.28l-.15.22q5.13-8.6,10.35-17.16c1.72-2.86,3.55-5.67,5.4-8.49.93-1.41,1.88-2.81,2.89-4.21.5-.7,1-1.41,1.58-2.12.29-.35.58-.71.91-1.09a11.09,11.09,0,0,1,1.24-1.23l-.26.23A28.09,28.09,0,0,1,109.78,96l-.3.08a3.18,3.18,0,0,0-1.27.71,3.13,3.13,0,0,0-.91,1.59,3,3,0,0,0-.07.76,1.55,1.55,0,0,0,0,.31l0,.14h0v-.06l0-.23-.1-.47-.2-1-.41-1.94L105.68,92,104,84.27v0l-1.82-8.38,7.29,5.25L127.4,94h0l-2.18-1.25c.24,0,1.35.2,2.53.42a31.71,31.71,0,0,1,3.55.87,53.18,53.18,0,0,1,6.38,2.43,88.54,88.54,0,0,1,11.51,6.18,90.6,90.6,0,0,1,10.48,7.89,74.44,74.44,0,0,1,9.09,9.67l1,1.33,1,1.38c.63.93,1.27,1.84,1.84,2.81a56.61,56.61,0,0,1,3.18,6c.23.52.47,1,.68,1.58l.64,1.72c.35,1.11.7,2.19.95,3.25.53,2.12,1,4.2,1.32,6.28.71,4.15,1.19,8.28,1.52,12.42a115.16,115.16,0,0,1,.36,12.48v0l-2.49.1a79.66,79.66,0,0,1,1.44-25.26,64.47,64.47,0,0,1,4-12.49,58,58,0,0,1,3.18-6c.57-1,1.2-1.88,1.84-2.81s1.27-1.85,2-2.72a73.92,73.92,0,0,1,9.1-9.68,85.85,85.85,0,0,1,22-14.11,52.54,52.54,0,0,1,6.38-2.43,29.69,29.69,0,0,1,3.55-.88c1.18-.22,2.31-.38,2.58-.43h0L232.58,94l17.88-12.87,0,0L257.7,76l-1.76,8.3L254.3,92l-.83,3.89-.42,1.94-.2,1-.1.47,0,.23,0,0s0,0,0,0l0-.14a2.85,2.85,0,0,0,0-.31,2.56,2.56,0,0,0-.07-.75,3.11,3.11,0,0,0-.9-1.59,3,3,0,0,0-1.26-.7L250.2,96a28,28,0,0,1,13.69,7.67l-2.23-.93h1.26l.73.69c.41.4.91.86,1.23,1.23l.91,1.09c.54.71,1.08,1.41,1.58,2.12,1,1.4,1.95,2.8,2.89,4.21,1.86,2.81,3.65,5.64,5.42,8.48,3.55,5.67,7,11.4,10.33,17.17l-.15-.23a29.53,29.53,0,0,1,1.9,3.27c.15.35.28.66.39.94s.22.6.32.9c.2.6.36,1.22.5,1.84a18.52,18.52,0,0,1,0,7.56,18.31,18.31,0,0,1-8.43,12,17.91,17.91,0,0,1-14.37,1.92,16.3,16.3,0,0,1-10.43-9.43l0-.06.36.41-11.93-5.81,0,0,2,.53c-1.07-.07-2.14-.09-3.19-.26a26.92,26.92,0,0,1-3.12-.63,26.34,26.34,0,0,1-5.8-2.29l-.05,0-1.18-.62.12-1,2.4-20.78,1,20.89-1.06-1.63.06,0a23,23,0,0,0,5.24.71,25,25,0,0,0,2.6-.11c.85-.07,1.7-.28,2.53-.43l1.18-.2.8.73,0,0,9.73,9,.25.23.12.18,0,0a15.93,15.93,0,0,0,9.48,6.54,14,14,0,0,0,10.85-1.85,13.46,13.46,0,0,0,6-9,13.26,13.26,0,0,0-.2-5.47,12.33,12.33,0,0,0-.4-1.31c-.08-.22-.16-.43-.25-.64l-.26-.57a23,23,0,0,0-1.46-2.36l-.05-.08-.1-.15c-3.52-5.62-7.08-11.23-10.68-16.78-1.81-2.78-3.63-5.54-5.5-8.23-.94-1.35-1.88-2.68-2.84-4-.48-.64-1-1.25-1.44-1.85l-.71-.82c-.23-.25-.36-.33-.53-.53l2,.7h-1.29l-1-.94a21.88,21.88,0,0,0-10.66-5.79l-.2,0-.11,0a3.42,3.42,0,0,1-2.12-2.53,3.44,3.44,0,0,1-.06-.82,1.79,1.79,0,0,1,0-.34l0-.17v-.07l0-.26.1-.5.19-1,.4-2,.79-3.9,1.62-7.79L254.94,86l0,0-14.49,16.6-.67.76-1.53.49-.07,0c-1.7.53-2.6.65-3.41.89s-1.57.45-2.37.74c-1.61.59-3.3,1.31-5,2.12a97.64,97.64,0,0,0-10.05,5.48,84.78,84.78,0,0,0-9.3,6.59,64.81,64.81,0,0,0-8.13,7.74c-.64.68-1.23,1.39-1.81,2.12s-1.17,1.44-1.7,2.19a45.54,45.54,0,0,0-3,4.64,85.65,85.65,0,0,0-4.76,10.41c-1.45,3.65-2.73,7.42-3.95,11.24s-2.31,7.73-3.45,11.7l-1.07,3.74-1.41-3.64v0c-3-7.73-5.36-15.58-8-23.14-.31-.94-.65-1.88-1-2.8s-.67-1.83-1-2.72-.7-1.73-1.06-2.55l-.54-1.1c-.19-.37-.42-.79-.64-1.19a48.1,48.1,0,0,0-3-4.64c-.53-.75-1.13-1.46-1.71-2.18l-.88-1.08-.93-1a64.11,64.11,0,0,0-8.14-7.73,83.63,83.63,0,0,0-9.29-6.58,98.28,98.28,0,0,0-10-5.47c-1.71-.8-3.4-1.53-5-2.11-.8-.29-1.57-.52-2.37-.74s-1.73-.36-3.45-.9l-1.5-.47-.68-.78h0L105,86l5.47-3.13v0l1.61,7.78.79,3.89.4,2,.19,1,.1.5,0,.26v.06l0,.18a1.87,1.87,0,0,1,0,.34,3.45,3.45,0,0,1-1,2.54,3.65,3.65,0,0,1-1.24.83l-.11,0-.2,0a22.09,22.09,0,0,0-10.66,5.79l0,0-.22.19c-.08.08-.3.27-.52.52s-.47.53-.71.82c-.48.59-1,1.21-1.45,1.85-1,1.29-1.9,2.62-2.84,4-1.86,2.7-3.71,5.44-5.48,8.24Q84,132.15,78.6,140.51l-.11.16,0,.06A23.44,23.44,0,0,0,77,143.1a11.91,11.91,0,0,0-.91,2.52,13.27,13.27,0,0,0-.2,5.47,13.52,13.52,0,0,0,6,9A14.1,14.1,0,0,0,92.74,162a16,16,0,0,0,9.48-6.57l.13-.2.23-.22h0l9.76-9.08.7-.65,1.31.11h0c.84.06,1.68.2,2.52.18a21.5,21.5,0,0,0,2.54-.13,21.91,21.91,0,0,0,5-1.15h0l-1.7,2.62Z"/><path class="cls-2" d="M210.24,166.34l29.49,16L241,183l.06,1.65h0a58.71,58.71,0,0,1-3.81,23.72,60.71,60.71,0,0,1-13.06,20.49A61.43,61.43,0,0,1,204,242.68a61.75,61.75,0,0,1-48.12,0,61.68,61.68,0,0,1-20.21-13.83,60.92,60.92,0,0,1-13.12-20.5,59,59,0,0,1-3.87-23.77h0l.07-1.77,1.29-.69,29.23-15.81.68,1.08-26.79,19.66,1.35-2.47h0a58.24,58.24,0,0,0,5,20.89,56.2,56.2,0,0,0,12.18,17.35,55.11,55.11,0,0,0,76.56.07,56.42,56.42,0,0,0,12.25-17.37,58.3,58.3,0,0,0,5.06-20.94h0l1.28,2.32-27.28-19.51Z"/><text class="cls-3" transform="matrix(0.24, 0.97, -0.97, 0.24, 84.5, 201.1)">E</text><text class="cls-3" transform="matrix(0.5, 0.86, -0.86, 0.5, 91.48, 226.71)">q</text><text class="cls-3" transform="translate(106.56 251.05) rotate(42.23)">u</text><text class="cls-3" transform="matrix(0.88, 0.48, -0.48, 0.88, 128.71, 269.49)">i</text><text class="cls-3" transform="matrix(0.97, 0.26, -0.26, 0.97, 143.57, 277.71)">n</text><text class="cls-3" transform="translate(171.84 284.53) rotate(-2.56)">a</text><text class="cls-3" transform="translate(202.17 282.14) rotate(-20.15)">p</text><text class="cls-3" transform="translate(228.66 271.67) rotate(-37.96)">h</text><text class="cls-3" transform="translate(251.3 252.32) rotate(-51.94)">i</text><text class="cls-3" transform="translate(261.26 239.47) rotate(-63.32)">c</text><text class="cls-3" transform="translate(270.97 219.04) rotate(-77.14)">s</text></svg>